<?xml version="1.0" encoding="utf-8"?>
<!-- Generator: Adobe Illustrator 21.1.0, SVG Export Plug-In . SVG Version: 6.00 Build 0)  -->
<svg version="1.1" id="Layer_1" xmlns="http://www.w3.org/2000/svg" xmlns:xlink="http://www.w3.org/1999/xlink" x="0px" y="0px"
	 viewBox="0 0 91.1 88.4" style="enable-background:new 0 0 91.1 88.4;" xml:space="preserve">
<style type="text/css">
	.st0{fill:#262626;}
</style>
<path class="st0" d="M62.6,42.6c1.8,0.5,3.8,0,5.1-1.4l6.2-6.2c1.3-1.3,1.9-3.3,1.4-5.1L75,28.7c-0.2-0.8-1.2-1.1-1.8-0.5L64.5,37
	c-0.3,0.3-0.7,0.4-1,0.3l-7.2-1.9c-0.4-0.1-0.7-0.4-0.8-0.8l-1.9-7.2c-0.1-0.4,0-0.8,0.3-1l8.8-8.8c0.6-0.6,0.3-1.6-0.5-1.8
	l-1.2-0.3c-1.8-0.5-3.8,0-5.1,1.4L49.6,23c-1.3,1.3-1.9,3.3-1.4,5.1l1.4,5.1L34.1,48.7L29,47.4c-1.8-0.5-3.8,0-5.1,1.4l-0.2,0.2
	l-6,6l-0.2,0.2c-1.3,1.3-1.9,3.3-1.4,5.1l2.3,8.4c0.5,1.8,1.9,3.3,3.8,3.8l8.4,2.3c1.8,0.5,3.8,0,5.1-1.4l0.2-0.2l6-6l0.2-0.2
	c1.3-1.3,1.9-3.3,1.4-5.1l-1.4-5.1l15.5-15.5L62.6,42.6z M37.9,63.6l-2.7,2.7l-2.7,2.7c-0.3,0.3-0.7,0.4-1,0.3l-7.2-1.9
	c-0.4-0.1-0.7-0.4-0.8-0.8l-1.9-7.2c-0.1-0.4,0-0.7,0.3-1l2.7-2.7l2.7-2.7c0.3-0.3,0.7-0.4,1-0.3l7.2,1.9c0.4,0.1,0.7,0.4,0.8,0.8
	l1.9,7.2C38.3,63,38.2,63.3,37.9,63.6z"/>
<polygon class="st0" points="26.4,30.1 39,42.7 43.4,38.3 30.8,25.7 30.7,21.3 22.1,17.1 17.7,21.5 22,30 "/>
<path class="st0" d="M56.6,43.3L43.9,56l16.2,16.2c1.2,1.2,3.3,1.2,4.5,0l8.2-8.2c1.2-1.2,1.2-3.3,0-4.5L56.6,43.3z"/>
</svg>
