<?xml version="1.0" encoding="utf-8"?>
<!-- Generator: Adobe Illustrator 21.1.0, SVG Export Plug-In . SVG Version: 6.00 Build 0)  -->
<svg version="1.1" id="Layer_1" xmlns="http://www.w3.org/2000/svg" xmlns:xlink="http://www.w3.org/1999/xlink" x="0px" y="0px"
	 viewBox="0 0 91.1 88.4" style="enable-background:new 0 0 91.1 88.4;" xml:space="preserve">
<style type="text/css">
	.st0{fill:#262626;}
</style>
<path class="st0" d="M68.9,68v-0.1c0-10.9-7.7-20-18-22.2c4.7-1.9,8.1-6.5,8.1-11.9c0-7-5.7-12.7-12.7-12.7c-7,0-12.7,5.7-12.7,12.7
	c0,5.4,3.4,10,8.1,11.9c-10.3,2.1-18,11.2-18,22.2V68H68.9z"/>
<path class="st0" d="M80.3,60.1c0-5.1-3.6-9.4-8.5-10.4c2.2-0.9,3.8-3,3.8-5.6c0-3.3-2.7-6-6-6c-3.3,0-6,2.7-6,6
	c0,2.5,1.6,4.7,3.8,5.6c-1.5,0.3-3,1-4.2,1.9c2.4,2.6,4.2,5.5,5.1,8.6L80.3,60.1L80.3,60.1z"/>
<path class="st0" d="M12.2,60.1c0-5.1,3.6-9.4,8.5-10.4c-2.2-0.9-3.8-3-3.8-5.6c0-3.3,2.7-6,6-6c3.3,0,6,2.7,6,6
	c0,2.5-1.6,4.7-3.8,5.6c1.5,0.3,3,1,4.2,1.9c-2.4,2.6-4.2,5.5-5.1,8.6L12.2,60.1L12.2,60.1z"/>
</svg>
