<?xml version="1.0" encoding="utf-8"?>
<!-- Generator: Adobe Illustrator 21.1.0, SVG Export Plug-In . SVG Version: 6.00 Build 0)  -->
<svg version="1.1" id="Layer_1" xmlns="http://www.w3.org/2000/svg" xmlns:xlink="http://www.w3.org/1999/xlink" x="0px" y="0px"
	 viewBox="0 0 91.1 88.4" style="enable-background:new 0 0 91.1 88.4;" xml:space="preserve">
<style type="text/css">
	.st0{fill:#262626;}
</style>
<path class="st0" d="M45,65.3H33.7c0,2.7,2.8,4.9,5.3,4.9H45h6.1c2.5,0,5.3-2.2,5.3-4.9H45z"/>
<g>
	<path class="st0" d="M44.7,12.5c-12,0-21.8,9.7-21.8,21.8c0,11.6,7,16.1,10.5,22.4c1.2,2.1,1.4,7.7,1.4,7.7h9.9h9.9
		c0,0,0.3-5.5,1.4-7.7c3.4-6.3,10.5-10.8,10.5-22.4C66.5,22.3,56.7,12.5,44.7,12.5z"/>
	<path class="st0" d="M64.1,43.3c0,0-1.5,2.4-2.1,3.3c-1.2,2-3.7,6.4-4.3,8.1c0,0-1.5,2.9-1.5,9.6H45.5v-21H64.1z"/>
	<path class="st0" d="M25.7,43.3c0,0,1.5,2.4,2,3.3c1.2,2,3.6,6.4,4.2,8.1c0,0,1.5,2.9,1.5,9.6h10.4v-21H25.7z"/>
</g>
<path class="st0" d="M44.7,74.8c2.8,0,5.2-1.6,5.2-3.5H39.5C39.5,73.2,41.9,74.8,44.7,74.8z"/>
</svg>
