<svg id="Layer_1" data-name="Layer 1" xmlns="http://www.w3.org/2000/svg" viewBox="0 0 86.11 83.33"><defs><style>.cls-1{fill:#262626;}</style></defs><title>upload</title><path class="cls-1" d="M45.09,12.89a2.63,2.63,0,0,0-1.87-.73,2.79,2.79,0,0,0-1.87.73l-14,14.71a2.59,2.59,0,0,0-.52,2.75A2.43,2.43,0,0,0,29,31.89l4.58,0-.07,20.87a3.68,3.68,0,0,0,3.6,3.74H49.28a3.68,3.68,0,0,0,3.6-3.74l-.07-20.86,4.58,0a2.42,2.42,0,0,0,2.23-1.55,2.58,2.58,0,0,0-.52-2.74Zm0,0"/><path class="cls-1" d="M69.44,41.31a3.69,3.69,0,0,0-3.93,3.37V63.45a1.49,1.49,0,0,1-1.6,1.39h-41a1.54,1.54,0,0,1-1.65-1.39V44.67a3.63,3.63,0,0,0-3.87-3.37,3.63,3.63,0,0,0-3.87,3.37V63.45c0,4.49,4.17,8.15,9.39,8.15h41c5.22,0,9.46-3.66,9.46-8.15V44.67a3.69,3.69,0,0,0-3.93-3.37Zm0,0"/></svg>